<svg fill="none" xmlns="http://www.w3.org/2000/svg" viewBox="0 0 32 32">
  <g clip-path="url(#bJIAZVoyUvYia)">
    <path fill-rule="evenodd" clip-rule="evenodd" d="M15.989.009a8.787 8.787 0 00-5.533 1.653 8.846 8.846 0 00-2.618 3.689 31.92 31.92 0 00-.8 2.173c-.151.447-.29.856-.429 1.209-.345.878-.64 1.22-.884 1.306a8.293 8.293 0 00-5.724 7.995 1.232 1.232 0 001.152 1.23 4.204 4.204 0 012.69.8c.4.402.645.934.692 1.5.05.3.08.622.11.963.037.41.077.846.158 1.304.064.462.22.906.46 1.306.324.483.796.847 1.344 1.038.913.266 1.802.606 2.658 1.017a2.63 2.63 0 011.23 1.421 5.837 5.837 0 001.844 2.383 6.245 6.245 0 003.765.993 5.818 5.818 0 004.917-2.538c.19-.28.353-.541.498-.774.16-.254.297-.474.424-.647a1.18 1.18 0 01.654-.539 5.557 5.557 0 003.342-2.42 9.08 9.08 0 00.922-2.654c.173-.683.278-.98.654-1.23a5.554 5.554 0 013.15-.422 1.231 1.231 0 001.305-1.23 14.164 14.164 0 00-.73-5.495 6.967 6.967 0 00-5.224-4.037h-.005c-.028 0-.064 0-.187-.16a4.203 4.203 0 01-.46-.923c-.14-.349-.285-.763-.444-1.22a35.145 35.145 0 00-.824-2.2 9.45 9.45 0 00-2.651-3.768A8.434 8.434 0 0015.989.01zm-4.917 9.838c0-1.359.827-2.459 1.845-2.459S14.76 8.496 14.76 9.85c0 1.353-.826 2.46-1.845 2.46-1.018 0-1.844-1.102-1.844-2.462zm4.918.002c0-1.366.826-2.46 1.844-2.46 1.018 0 1.844 1.107 1.844 2.46s-.826 2.46-1.844 2.46c-1.018 0-1.844-1.094-1.844-2.46z" fill="#0F0D0F"/>
  </g>
  <defs>
    <clipPath id="bJIAZVoyUvYia">
      <path fill="#fff" d="M0 0h32v32H0z"/>
    </clipPath>
  </defs>
</svg>
