<svg fill="none" xmlns="http://www.w3.org/2000/svg" viewBox="0 0 56 56">
  <g clip-path="url(#lghWnWG8XU3ea)">
    <path d="M44 0H12C5.373 0 0 5.373 0 12v32c0 6.627 5.373 12 12 12h32c6.627 0 12-5.373 12-12V12c0-6.627-5.373-12-12-12z" fill="#19161A"/>
    <path d="M23 23.5L21.5 25 21 38l1 2.5 4 .5 13-2.5 1.5-1L41 30v-5.5L39.5 22l-2-1L23 23.5z" fill="#006466" fill-opacity=".1"/>
    <path fill-rule="evenodd" clip-rule="evenodd" d="M30.995 16.036l-12.69 2.036A2.738 2.738 0 0016 20.775v10.558c0 .839.374 1.579.955 2.078v2.313A4.737 4.737 0 0114 31.333V20.775c0-2.327 1.69-4.31 3.987-4.678l12.692-2.036a4.736 4.736 0 014.774 2.174l-2.345.341a2.724 2.724 0 00-2.113-.54zM24.138 24l12.691-2.036a2.738 2.738 0 013.172 2.703v10.558c0 1.344-.976 2.49-2.304 2.703l-12.692 2.036a2.738 2.738 0 01-3.171-2.703V26.704c0-1.345.976-2.49 2.304-2.704zm-4.304 2.704c0-2.327 1.69-4.31 3.987-4.678l12.692-2.037A4.738 4.738 0 0142 24.667v10.558c0 2.327-1.69 4.31-3.987 4.678l-12.692 2.036a4.738 4.738 0 01-5.488-4.678V26.704z" fill="#006466"/>
  </g>
  <defs>
    <clipPath id="lghWnWG8XU3ea">
      <path fill="#fff" d="M0 0h56v56H0z"/>
    </clipPath>
  </defs>
</svg>
