<svg fill="none" xmlns="http://www.w3.org/2000/svg" viewBox="0 0 56 56">
  <g clip-path="url(#yyK5YG-7DYmha)">
    <path d="M44 0H12C5.373 0 0 5.373 0 12v32c0 6.627 5.373 12 12 12h32c6.627 0 12-5.373 12-12V12c0-6.627-5.373-12-12-12z" fill="#19161A"/>
    <path d="M23.334 17.23L19.6 19.386 18.2 21l-1.4 2.154-.466 5.384.933 4.847 1.867 3.769L21 39.308l.933-.539 1.4-1.615 2.8.538h5.134L35.934 35l2.333-2.692 1.4-3.77-.467-4.307-1.867-3.77L35 18.309l-4.2-1.616-3.733-.538-3.733 1.077z" fill="#006466" fill-opacity=".1"/>
    <path d="M20.648 40.737c.437.426 1.12.452 1.58-.03.647-.677 1.165-1.68 1.67-2.7 1.282.41 2.622.732 4.06.732 6.918 0 12.742-5.178 12.742-11.882 0-6.703-5.825-11.88-12.741-11.88-3.58 0-7.309 1.388-9.934 4.432-3.062 3.55-3.234 8.465-2.031 12.806.872 3.148 2.36 6.283 4.654 8.522zm3.107-5.05a.891.891 0 00-.7.026 1.064 1.064 0 00-.51.532c-.39.864-.785 1.43-1.175 1.97-1.574-1.822-2.769-4.178-3.464-6.689-1.064-3.838-.895-7.681 1.549-10.515 2.167-2.514 5.383-3.75 8.504-3.75 6.049 0 10.735 4.44 10.735 9.596 0 5.157-4.685 9.598-10.735 9.598-1.495 0-2.915-.276-4.204-.769z" fill="#006466" stroke="#006466" stroke-width=".2"/>
  </g>
  <defs>
    <clipPath id="yyK5YG-7DYmha">
      <path fill="#fff" d="M0 0h56v56H0z"/>
    </clipPath>
  </defs>
</svg>
