<svg fill="none" xmlns="http://www.w3.org/2000/svg" viewBox="0 0 56 56">
  <g clip-path="url(#gSPzDMKCGzjga)">
    <path d="M44 0H12C5.373 0 0 5.373 0 12v32c0 6.627 5.373 12 12 12h32c6.627 0 12-5.373 12-12V12c0-6.627-5.373-12-12-12z" fill="#19161A"/>
    <path d="M28 15.5l-10 5-.5 3v5l2 5 4 5 4.5 2 3.5-2 3-2.5 3-5.5.5-7-.5-3-9.5-5z" fill="#006466" fill-opacity=".1"/>
    <path d="M26.575 15.05l-8.162 3.997a2.993 2.993 0 00-1.663 2.67v5.718c0 5.704 4.15 11.288 10.061 13.611a2.94 2.94 0 001.07.204c.365 0 .727-.069 1.071-.203 5.91-2.326 10.062-7.908 10.062-13.612v-5.719a2.99 2.99 0 00-1.664-2.669l-8.16-3.997a2.988 2.988 0 00-2.614 0zm1.735 24.361c-.276.109-.58.109-.856 0-5.284-2.076-8.948-7.014-8.948-11.976v-5.719c0-.459.267-.889.68-1.092l8.161-3.997a1.218 1.218 0 011.07 0l8.16 3.997c.413.203.681.631.681 1.092v5.72c0 4.96-3.664 9.899-8.949 11.975z" fill="#006466"/>
    <path d="M19.186 20.624c-.413.203-.68.633-.68 1.092v5.72c0 4.96 3.664 9.899 8.948 11.975.276.109.58.109.855 0 5.285-2.076 8.949-7.014 8.949-11.976v-5.719c0-.46-.268-.889-.68-1.092l-8.162-3.997a1.218 1.218 0 00-1.069 0l-8.161 3.997zm0 0s0 0 0 0zm7.389-5.574l-8.162 3.997a2.993 2.993 0 00-1.663 2.67v5.718c0 5.704 4.15 11.288 10.061 13.611a2.94 2.94 0 001.07.204c.365 0 .727-.069 1.071-.203 5.91-2.326 10.062-7.908 10.062-13.612v-5.719a2.99 2.99 0 00-1.664-2.669l-8.16-3.997a2.988 2.988 0 00-2.614 0z" stroke="#006466" stroke-width=".5"/>
  </g>
  <defs>
    <clipPath id="gSPzDMKCGzjga">
      <path fill="#fff" d="M0 0h56v56H0z"/>
    </clipPath>
  </defs>
</svg>
