<svg fill="none" xmlns="http://www.w3.org/2000/svg" viewBox="0 0 56 56">
  <g clip-path="url(#2LPve_j2CYiza)">
    <path d="M44 0H12C5.373 0 0 5.373 0 12v32c0 6.627 5.373 12 12 12h32c6.627 0 12-5.373 12-12V12c0-6.627-5.373-12-12-12z" fill="#19161A"/>
    <path fill-rule="evenodd" clip-rule="evenodd" d="M27.088 14.386a1.27 1.27 0 012.183.903v1.355a11.352 11.352 0 018.64 5.63c.486.849-.121 1.912-1.1 1.912-.47 0-.883-.27-1.12-.677-1.507-2.606-4.297-4.345-7.545-4.397a1.31 1.31 0 01-.28 0c-3.253.048-6.048 1.788-7.557 4.397-.237.406-.65.677-1.12.677-.979 0-1.587-1.063-1.1-1.911a11.352 11.352 0 018.64-5.63v-1.356a1.271 1.271 0 01.359-.903zm-8.999 19.339c-.486-.848.121-1.912 1.1-1.912.47 0 .883.271 1.12.678 1.507 2.605 4.297 4.345 7.544 4.397a1.276 1.276 0 01.279 0c3.254-.047 6.05-1.788 7.56-4.397.236-.407.649-.678 1.119-.678.979 0 1.587 1.064 1.1 1.912a11.353 11.353 0 01-8.64 5.63v1.356a1.271 1.271 0 11-2.542 0v-1.356a11.353 11.353 0 01-8.64-5.63zm6.824-8.325a4.039 4.039 0 00-.886 2.494l.011.012a4.03 4.03 0 007.95.951.673.673 0 00.03-.138l.01-.039v-.06a.72.72 0 00-.576-.706l-.021-.003a1.207 1.207 0 00-.123-.01h-1.892a1.35 1.35 0 01-1.347-1.351v-1.854h-.015a.72.72 0 00-.863-.707.71.71 0 00-.368.19.722.722 0 01.33-.19 4.04 4.04 0 00-2.24 1.41z" fill="#ED52CB"/>
  </g>
  <defs>
    <clipPath id="2LPve_j2CYiza">
      <path fill="#fff" d="M0 0h56v56H0z"/>
    </clipPath>
  </defs>
</svg>
